<svg width="800" height="345" viewBox="0 0 800 345" xmlns="http://www.w3.org/2000/svg">

  <rect width="800" height="345" rx="12" fill="#0D1B2A"/>

  <rect width="800" height="36" rx="12" fill="#091522"/>
  <rect y="26" width="800" height="10" fill="#091522"/>

  <circle cx="22" cy="18" r="6" fill="#ff5f56"/>
  <circle cx="42" cy="18" r="6" fill="#ffbd2e"/>
  <circle cx="62" cy="18" r="6" fill="#27c93f"/>

  <text x="400" y="23" text-anchor="middle"
        font-family="'Courier New', Courier, monospace" font-size="12" fill="#8BAF52">asma@github: ~ &#8212; bash</text>

  <circle cx="564" cy="18" r="5" fill="#0D1B2A" stroke="#3d5c24" stroke-width="1"/>
  <circle cx="580" cy="18" r="5" fill="#3d5c24"/>
  <circle cx="596" cy="18" r="5" fill="#5a8a3c"/>
  <circle cx="612" cy="18" r="5" fill="#8BAF52"/>
  <circle cx="628" cy="18" r="5" fill="#c8d5a0"/>
  <circle cx="644" cy="18" r="5" fill="#1e3a5f"/>
  <circle cx="660" cy="18" r="5" fill="#2d5a8c"/>
  <circle cx="676" cy="18" r="5" fill="#7aa0c0"/>

  <g font-family="'Courier New', Courier, monospace" font-size="13">

    <text x="24" y="57" fill="#c8d5a0">$ neofetch</text>

    <text x="34" y="82"  fill="#8BAF52">    )  )  )</text>
    <text x="34" y="100" fill="#8BAF52">   (  (  ( </text>
    <text x="34" y="118" fill="#8BAF52">  .---------.</text>
    <text x="34" y="136" fill="#8BAF52">  |         |]</text>
    <text x="34" y="154" fill="#8BAF52">  |  ~~~~~  |</text>
    <text x="34" y="172" fill="#8BAF52">  `---------'</text>
    <text x="34" y="190" fill="#4a7030">   sip. sip.</text>

    <text x="296" y="82" fill="#8BAF52" font-weight="bold">asma@github</text>

    <line x1="296" y1="92"  x2="718" y2="92"  stroke="#2d4e1c" stroke-width="1"/>
    <line x1="296" y1="221" x2="718" y2="221" stroke="#2d4e1c" stroke-width="1"/>

    <text y="118"><tspan x="296" fill="#8BAF52">OS</tspan><tspan x="407" fill="#2d4e1c">.....  </tspan><tspan x="460" fill="#c8d5a0">CS Undergrad (final boss: TBD)</tspan></text>
    <text y="136"><tspan x="296" fill="#8BAF52">Host</tspan><tspan x="407" fill="#2d4e1c">.....  </tspan><tspan x="460" fill="#c8d5a0">University, Pakistan</tspan></text>
    <text y="154"><tspan x="296" fill="#8BAF52">Uptime</tspan><tspan x="407" fill="#2d4e1c">.....  </tspan><tspan x="460" fill="#c8d5a0">21 years, still going</tspan></text>
    <text y="172"><tspan x="296" fill="#8BAF52">Shell</tspan><tspan x="407" fill="#2d4e1c">.....  </tspan><tspan x="460" fill="#c8d5a0">caffeine + VS Code</tspan></text>
    <text y="190"><tspan x="296" fill="#8BAF52">CPU</tspan><tspan x="407" fill="#2d4e1c">.....  </tspan><tspan x="460" fill="#c8d5a0">sleep-deprived @ 3AM</tspan></text>
    <text y="208"><tspan x="296" fill="#8BAF52">Memory</tspan><tspan x="407" fill="#2d4e1c">.....  </tspan><tspan x="460" fill="#c8d5a0">8GB (Chrome ate it all)</tspan></text>

    <text y="244"><tspan x="296" fill="#8BAF52">Languages</tspan><tspan x="407" fill="#2d4e1c">.....  </tspan><tspan x="460" fill="#c8d5a0">JS - TS - Java - C++ - SQL</tspan></text>
    <text y="262"><tspan x="296" fill="#8BAF52">Stack</tspan><tspan x="407" fill="#2d4e1c">.....  </tspan><tspan x="460" fill="#c8d5a0">MERN - Next.js - Docker</tspan></text>
    <text y="280"><tspan x="296" fill="#8BAF52">Databases</tspan><tspan x="407" fill="#2d4e1c">.....  </tspan><tspan x="460" fill="#c8d5a0">MongoDB - MySQL - Postgres</tspan></text>
    <text y="298"><tspan x="296" fill="#8BAF52">Currently</tspan><tspan x="407" fill="#2d4e1c">.....  </tspan><tspan x="460" fill="#c8d5a0">surviving system design @ 3AM</tspan></text>
    <text y="316"><tspan x="296" fill="#8BAF52">Mood</tspan><tspan x="407" fill="#2d4e1c">.....  </tspan><tspan x="460" fill="#c8d5a0">if (coffee &gt; 0) { code() }</tspan></text>

    <text x="24" y="334" fill="#c8d5a0">$ <tspan fill="#8BAF52">&#9608;</tspan></text>

  </g>
</svg>
